# xmcd
#
# Track frame offsets:
#	150
#	20552
#	41010
#	67015
#	89672
#	106735
#	125802
#	145355
#	164452
#	177895
#	199015
#	220977
#	241227
#	264567
#	283397
#	305085
#
# Disc length: 4309 seconds
#
# Revision: 9
# Processed by: cddbd v1.5.2PL0 Copyright (c) Steve Scherf et al.
# Submitted via: EasyCDDAExtractor 15.3.0.1
#
DISCID=fd10d310
DTITLE=Celine Dion - The Collector's Series - Volume One
DYEAR=2000
DGENRE=Pop
TTITLE0=The Power Of The Dream (As Performed At The Opening Ceremony Of The 19
TTITLE0=96 Atlanta Olympic Games)
TTITLE1=Where Does My Heart Beat Now
TTITLE2=Us
TTITLE3=The Reason
TTITLE4=Seduces Me
TTITLE5=With This Tear
TTITLE6=Falling Into You
TTITLE7=Pour Que Tu M'aimes Encore
TTITLE8=Un Garcon Pas Comme Les Autres (Ziggy)
TTITLE9=Be The Man (On This Night)
TTITLE10=Tell Him (Duet With Barbra Streisand)
TTITLE11=The Prayer (Duet With Andrea Bocelli)
TTITLE12=All By Myself (Spanish Version)
TTITLE13=Amar Haciendo El Amor
TTITLE14=Only One Road
TTITLE15=That's The Way It Is
EXTD=YEAR: 2000
EXTT0=
EXTT1=
EXTT2=
EXTT3=
EXTT4=
EXTT5=
EXTT6=
EXTT7=
EXTT8=
EXTT9=
EXTT10=
EXTT11=
EXTT12=
EXTT13=
EXTT14=
EXTT15=
PLAYORDER=
